<svg width="256" height="63" viewBox="0 0 256 63" fill="none" xmlns="http://www.w3.org/2000/svg">
<path fill-rule="evenodd" clip-rule="evenodd" d="M128.255 15.0973C133.718 15.0973 138.517 17.8702 141.427 22.0297V2.77297C137.445 1.02702 132.952 0 128.255 0C110.691 0 96.4466 13.8135 96.4466 30.8621C96.4466 47.9107 110.691 61.7242 128.255 61.7242C132.952 61.7242 137.394 60.7485 141.427 58.9512V47.6622C144.665 56.1693 153.689 62.2888 164.299 62.2888C175.932 62.2888 185.659 54.9313 187.942 45.136V60.5946H202.34V37.1271C202.34 33.6352 205.148 30.8623 208.568 30.8623C212.04 30.8623 214.797 33.6866 214.797 37.1271V60.5946H229.195V37.1271C229.195 35.2271 230.063 33.4812 231.391 32.3515C232.463 31.4271 233.841 30.8623 235.373 30.8623C238.845 30.8623 241.602 33.6866 241.602 37.1271V60.5433H256V34.046C256 27.5758 251.711 22.0299 245.84 20.2326C244.461 19.8218 242.981 19.565 241.449 19.565C236.241 19.565 231.697 22.338 229.144 26.4461C229.093 26.5488 229.042 26.6387 228.991 26.7286C228.94 26.8184 228.889 26.9083 228.838 27.0109C226.489 23.7245 223.069 21.2596 219.086 20.2326C217.708 19.8731 216.278 19.6677 214.797 19.6677C209.896 19.6677 205.454 21.7218 202.34 25.0596V20.1812H187.942V36.2333C185.66 26.4746 175.947 19.1537 164.299 19.1537C150.973 19.1537 140.149 28.8078 140.149 40.7213C140.149 41.1033 140.16 41.483 140.182 41.8602C137.265 45.1471 132.99 47.1918 128.255 47.1918C119.422 47.1918 112.274 40.0026 112.274 31.1189C112.274 22.2351 119.422 15.0973 128.255 15.0973ZM5.56517 1.38625H58.8683L28.3875 47.7051H55.6007V60.4915H0L30.7361 13.8646H5.46306L5.56517 1.38625ZM70.8651 8.06188C57.5393 8.06188 46.7153 17.7159 46.7153 29.6294C46.7153 41.5429 57.5393 51.1969 70.8651 51.1969C84.1909 51.1969 95.0149 41.5429 95.0149 29.6294C95.0149 17.7159 84.2419 8.06188 70.8651 8.06188ZM70.8651 39.1294C65.6573 39.1294 61.4196 34.8672 61.4196 29.6294C61.4196 24.3916 65.6573 20.1808 70.8651 20.1808C76.0729 20.1808 80.3106 24.4429 80.3106 29.6807C80.3106 34.9186 76.0729 39.1294 70.8651 39.1294ZM154.853 40.6699C154.853 45.9077 159.091 50.1699 164.299 50.1699C169.506 50.1699 173.744 45.9077 173.744 40.6699C173.744 35.4321 169.506 31.1699 164.299 31.1699C159.091 31.1699 154.853 35.4321 154.853 40.6699Z" fill="black"/>
</svg>
